<?xml version="1.0" encoding="UTF-8"?>
<svg id="Layer_2" data-name="Layer 2" xmlns="http://www.w3.org/2000/svg" viewBox="0 0 367.94 363">
  <g id="Layer_1-2" data-name="Layer 1">
    <circle cx="183.97" cy="181.5" r="181.5" style="fill: #b5e1e1; stroke-width: 0px;"/>
  </g>
  <g id="Layer_2-2" data-name="Layer 2">
    <path d="m327.52,57.85c-36.9,14.06-133.54,121.24-133.54,121.24-49.29-133.59-167.43-21.34-77.31,79.07,0,0-33.39,35.14-66.77,43.93-33.39,8.79-40.41-7.03-38.66-10.54s7.03-10.54,12.3-3.51c5.27,7.03,31.63-8.79,26.36-22.84-5.27-14.06-21.09-19.33-38.66-1.76-37.21,46.3,26.58,59.86,66.77,40.42,24.6-14.06,44.81-37.78,44.81-37.78,0,0,7.03,7.03,21.09,14.06s17.57,7.03,17.57,7.03l-14.06,21.09,57.11.88s4.6-8.36,12.21-21.86c11.8-4.95,45.34-15.23,37.87-28.22-3.52-3.51-7.03-1.76-12.3,3.51-3.09,3.09-11.6,7.98-18.12,11.51,21.29-42.74,123.78-204.06,143.75-219.73,0,0-3.51-10.54-40.41,3.51Zm-232.82,118.61c20.19-85.28,83.86-26.35,91.37,8.79l-63.26,68.53s-35.14-47.44-28.11-77.31Zm93.13,73.8l-19.33,29.87s-15.81-3.51-28.11-12.3c-12.3-8.79-10.54-8.79-10.54-8.79l57.99-61.5v52.71Zm144.09-172.2c-36.47,31.01-114.47,125.91-133.54,159.9l-1.76-49.2c10.86-11.17,113.01-117.8,140.57-124.76,0,0,22.84-10.54-5.27,14.06Z" style="stroke-width: 0px;"/>
  </g>
</svg>